<mxfile host="app.diagrams.net" modified="2024-03-12T03:50:31.403Z" agent="Mozilla/5.0 (Windows NT 10.0; Win64; x64) AppleWebKit/537.36 (KHTML, like Gecko) Chrome/122.0.0.0 Safari/537.36 Edg/122.0.0.0" etag="zr1hXDrN9drFFByh-k1a" version="24.0.2" type="github">
  <diagram name="企业信息化" id="NxcOVVZszJVGTsNgCWCs">
    <mxGraphModel dx="3156" dy="2902" grid="1" gridSize="10" guides="1" tooltips="1" connect="1" arrows="1" fold="1" page="1" pageScale="1" pageWidth="827" pageHeight="1169" math="0" shadow="0">
      <root>
        <mxCell id="0" />
        <mxCell id="1" parent="0" />
        <mxCell id="yCWSXa417unQgLt9EM9f-55" value="" style="rounded=0;whiteSpace=wrap;html=1;fillColor=#dae8fc;strokeColor=#6c8ebf;" vertex="1" parent="1">
          <mxGeometry x="10" y="590" width="1140" height="180" as="geometry" />
        </mxCell>
        <mxCell id="yCWSXa417unQgLt9EM9f-56" value="IT基础设施建设" style="text;html=1;align=center;verticalAlign=middle;resizable=0;points=[];autosize=1;strokeColor=none;fillColor=none;" vertex="1" parent="1">
          <mxGeometry x="20" y="660" width="110" height="30" as="geometry" />
        </mxCell>
        <mxCell id="yCWSXa417unQgLt9EM9f-71" value="" style="rounded=0;whiteSpace=wrap;html=1;fillColor=#ffe6cc;strokeColor=#d79b00;" vertex="1" parent="1">
          <mxGeometry x="10" y="400" width="350" height="160" as="geometry" />
        </mxCell>
        <mxCell id="yCWSXa417unQgLt9EM9f-72" value="" style="rounded=0;whiteSpace=wrap;html=1;fillColor=#d5e8d4;strokeColor=#82b366;" vertex="1" parent="1">
          <mxGeometry x="390" y="400" width="330" height="160" as="geometry" />
        </mxCell>
        <mxCell id="yCWSXa417unQgLt9EM9f-73" value="" style="rounded=0;whiteSpace=wrap;html=1;fillColor=#e1d5e7;strokeColor=#9673a6;" vertex="1" parent="1">
          <mxGeometry x="740" y="400" width="410" height="160" as="geometry" />
        </mxCell>
        <mxCell id="yCWSXa417unQgLt9EM9f-74" value="供应协作SRM" style="text;html=1;align=center;verticalAlign=middle;resizable=0;points=[];autosize=1;strokeColor=none;fillColor=none;fontStyle=1" vertex="1" parent="1">
          <mxGeometry x="395" y="465" width="100" height="30" as="geometry" />
        </mxCell>
        <mxCell id="yCWSXa417unQgLt9EM9f-80" value="供应商管理" style="rounded=1;whiteSpace=wrap;html=1;" vertex="1" parent="1">
          <mxGeometry x="495" y="425" width="110" height="40" as="geometry" />
        </mxCell>
        <mxCell id="yCWSXa417unQgLt9EM9f-81" value="采购协同" style="rounded=1;whiteSpace=wrap;html=1;" vertex="1" parent="1">
          <mxGeometry x="495" y="482" width="110" height="42" as="geometry" />
        </mxCell>
        <mxCell id="yCWSXa417unQgLt9EM9f-82" value="供应商绩效评估" style="rounded=1;whiteSpace=wrap;html=1;" vertex="1" parent="1">
          <mxGeometry x="620" y="427" width="90" height="40" as="geometry" />
        </mxCell>
        <mxCell id="yCWSXa417unQgLt9EM9f-87" value="企划&lt;span style=&quot;background-color: initial;&quot;&gt;设计PLM&amp;nbsp;&lt;/span&gt;" style="text;html=1;align=center;verticalAlign=middle;resizable=0;points=[];autosize=1;strokeColor=none;fillColor=none;fontStyle=1" vertex="1" parent="1">
          <mxGeometry x="10" y="469" width="100" height="30" as="geometry" />
        </mxCell>
        <mxCell id="yCWSXa417unQgLt9EM9f-88" value="主题企划" style="rounded=1;whiteSpace=wrap;html=1;" vertex="1" parent="1">
          <mxGeometry x="95" y="429" width="110" height="40" as="geometry" />
        </mxCell>
        <mxCell id="yCWSXa417unQgLt9EM9f-89" value="版型设计" style="rounded=1;whiteSpace=wrap;html=1;" vertex="1" parent="1">
          <mxGeometry x="225" y="429" width="110" height="40" as="geometry" />
        </mxCell>
        <mxCell id="yCWSXa417unQgLt9EM9f-90" value="" style="rounded=0;whiteSpace=wrap;html=1;fillColor=#cce5ff;strokeColor=#CCCCCC;" vertex="1" parent="1">
          <mxGeometry x="1190" y="-102" width="160" height="872" as="geometry" />
        </mxCell>
        <mxCell id="yCWSXa417unQgLt9EM9f-96" value="智能制造MES" style="text;html=1;align=center;verticalAlign=middle;resizable=0;points=[];autosize=1;strokeColor=none;fillColor=none;fontStyle=1" vertex="1" parent="1">
          <mxGeometry x="740" y="454" width="100" height="30" as="geometry" />
        </mxCell>
        <mxCell id="yCWSXa417unQgLt9EM9f-97" value="过程可视化&amp;nbsp; &amp;nbsp; 产线看板/&amp;nbsp; 生产监控" style="rounded=1;whiteSpace=wrap;html=1;" vertex="1" parent="1">
          <mxGeometry x="835" y="419" width="300" height="35" as="geometry" />
        </mxCell>
        <mxCell id="yCWSXa417unQgLt9EM9f-98" value="工艺管理" style="rounded=1;whiteSpace=wrap;html=1;" vertex="1" parent="1">
          <mxGeometry x="830" y="492" width="90" height="40" as="geometry" />
        </mxCell>
        <mxCell id="yCWSXa417unQgLt9EM9f-99" value="智能排程" style="rounded=1;whiteSpace=wrap;html=1;" vertex="1" parent="1">
          <mxGeometry x="940" y="492" width="90" height="40" as="geometry" />
        </mxCell>
        <mxCell id="yCWSXa417unQgLt9EM9f-100" value="生产管理" style="rounded=1;whiteSpace=wrap;html=1;" vertex="1" parent="1">
          <mxGeometry x="1050" y="492" width="90" height="40" as="geometry" />
        </mxCell>
        <mxCell id="yCWSXa417unQgLt9EM9f-101" value="协同办公" style="text;html=1;align=center;verticalAlign=middle;resizable=0;points=[];autosize=1;strokeColor=none;fillColor=none;fontStyle=1" vertex="1" parent="1">
          <mxGeometry x="1241" y="-80" width="70" height="30" as="geometry" />
        </mxCell>
        <mxCell id="yCWSXa417unQgLt9EM9f-103" value="办&lt;div&gt;公&lt;/div&gt;&lt;div&gt;自&lt;/div&gt;&lt;div&gt;动&lt;/div&gt;&lt;div&gt;化&lt;/div&gt;&lt;div&gt;O&lt;/div&gt;&lt;div&gt;A&lt;/div&gt;&lt;div&gt;系&lt;/div&gt;&lt;div&gt;统&lt;/div&gt;" style="rounded=1;whiteSpace=wrap;html=1;flipV=0;direction=south;" vertex="1" parent="1">
          <mxGeometry x="1241" y="-20" width="55" height="230" as="geometry" />
        </mxCell>
        <mxCell id="yCWSXa417unQgLt9EM9f-104" value="即&lt;div&gt;时&lt;/div&gt;&lt;div&gt;通&lt;/div&gt;&lt;div&gt;讯&lt;/div&gt;&lt;div&gt;IM&lt;/div&gt;" style="rounded=1;whiteSpace=wrap;html=1;direction=south;" vertex="1" parent="1">
          <mxGeometry x="1241" y="584" width="60" height="120" as="geometry" />
        </mxCell>
        <mxCell id="yCWSXa417unQgLt9EM9f-105" value="" style="rounded=0;whiteSpace=wrap;html=1;fillColor=#f0a30a;fontColor=#000000;strokeColor=#BD7000;" vertex="1" parent="1">
          <mxGeometry x="10" y="30" width="1140" height="270" as="geometry" />
        </mxCell>
        <mxCell id="yCWSXa417unQgLt9EM9f-110" value="" style="rounded=1;whiteSpace=wrap;html=1;strokeColor=none;" vertex="1" parent="1">
          <mxGeometry x="390" y="40" width="410" height="250" as="geometry" />
        </mxCell>
        <mxCell id="yCWSXa417unQgLt9EM9f-128" value="" style="rounded=0;whiteSpace=wrap;html=1;fillColor=#b0e3e6;strokeColor=#0e8088;" vertex="1" parent="1">
          <mxGeometry x="10" y="-100" width="1140" height="120" as="geometry" />
        </mxCell>
        <mxCell id="yCWSXa417unQgLt9EM9f-137" value="" style="rounded=0;whiteSpace=wrap;html=1;fillColor=#1ba1e2;fontColor=#ffffff;strokeColor=#006EAF;" vertex="1" parent="1">
          <mxGeometry x="10" y="320" width="1140" height="60" as="geometry" />
        </mxCell>
        <mxCell id="yCWSXa417unQgLt9EM9f-138" value="能力共享" style="text;html=1;align=center;verticalAlign=middle;resizable=0;points=[];autosize=1;strokeColor=none;fillColor=none;fontStyle=1" vertex="1" parent="1">
          <mxGeometry x="20" y="335" width="70" height="30" as="geometry" />
        </mxCell>
        <mxCell id="yCWSXa417unQgLt9EM9f-139" value="货品中心" style="shape=cylinder3;whiteSpace=wrap;html=1;boundedLbl=1;backgroundOutline=1;size=4.666636149088561;" vertex="1" parent="1">
          <mxGeometry x="120" y="330" width="140" height="40" as="geometry" />
        </mxCell>
        <mxCell id="yCWSXa417unQgLt9EM9f-140" value="门店中心" style="shape=cylinder3;whiteSpace=wrap;html=1;boundedLbl=1;backgroundOutline=1;size=4.666636149088561;" vertex="1" parent="1">
          <mxGeometry x="325" y="330" width="140" height="40" as="geometry" />
        </mxCell>
        <mxCell id="yCWSXa417unQgLt9EM9f-141" value="库存中心" style="shape=cylinder3;whiteSpace=wrap;html=1;boundedLbl=1;backgroundOutline=1;size=4.666636149088561;" vertex="1" parent="1">
          <mxGeometry x="530" y="330" width="140" height="40" as="geometry" />
        </mxCell>
        <mxCell id="yCWSXa417unQgLt9EM9f-142" value="订单中心" style="shape=cylinder3;whiteSpace=wrap;html=1;boundedLbl=1;backgroundOutline=1;size=4.666636149088561;" vertex="1" parent="1">
          <mxGeometry x="735" y="330" width="140" height="40" as="geometry" />
        </mxCell>
        <mxCell id="yCWSXa417unQgLt9EM9f-143" value="客户中心" style="shape=cylinder3;whiteSpace=wrap;html=1;boundedLbl=1;backgroundOutline=1;size=4.666636149088561;" vertex="1" parent="1">
          <mxGeometry x="940" y="330" width="140" height="40" as="geometry" />
        </mxCell>
        <mxCell id="yCWSXa417unQgLt9EM9f-152" value="样品开发" style="rounded=1;whiteSpace=wrap;html=1;" vertex="1" parent="1">
          <mxGeometry x="95" y="491" width="110" height="40" as="geometry" />
        </mxCell>
        <mxCell id="yCWSXa417unQgLt9EM9f-153" value="产品核价" style="rounded=1;whiteSpace=wrap;html=1;" vertex="1" parent="1">
          <mxGeometry x="225" y="492.5" width="110" height="37" as="geometry" />
        </mxCell>
        <mxCell id="yCWSXa417unQgLt9EM9f-154" value="MDM 主数据管理" style="rounded=1;whiteSpace=wrap;html=1;fillColor=#f0a30a;fontColor=#000000;strokeColor=#BD7000;" vertex="1" parent="1">
          <mxGeometry x="400" y="190" width="110" height="70" as="geometry" />
        </mxCell>
        <mxCell id="yCWSXa417unQgLt9EM9f-155" value="SD 分销模块" style="rounded=1;whiteSpace=wrap;html=1;fillColor=#f0a30a;fontColor=#000000;strokeColor=#BD7000;" vertex="1" parent="1">
          <mxGeometry x="400" y="80" width="110" height="70" as="geometry" />
        </mxCell>
        <mxCell id="yCWSXa417unQgLt9EM9f-157" value="业务应用" style="text;html=1;align=center;verticalAlign=middle;resizable=0;points=[];autosize=1;strokeColor=none;fillColor=none;fontStyle=1" vertex="1" parent="1">
          <mxGeometry x="10" y="145" width="70" height="30" as="geometry" />
        </mxCell>
        <mxCell id="yCWSXa417unQgLt9EM9f-165" value="WM 仓库管理模块" style="rounded=1;whiteSpace=wrap;html=1;fillColor=#f0a30a;fontColor=#000000;strokeColor=#BD7000;" vertex="1" parent="1">
          <mxGeometry x="540" y="80" width="113.25" height="70" as="geometry" />
        </mxCell>
        <mxCell id="yCWSXa417unQgLt9EM9f-166" value="FI 财务管理" style="rounded=1;whiteSpace=wrap;html=1;fillColor=#f0a30a;fontColor=#000000;strokeColor=#BD7000;" vertex="1" parent="1">
          <mxGeometry x="680" y="80" width="100" height="70" as="geometry" />
        </mxCell>
        <mxCell id="yCWSXa417unQgLt9EM9f-167" value="QM 质量管理模块" style="rounded=1;whiteSpace=wrap;html=1;fillColor=#f0a30a;fontColor=#000000;strokeColor=#BD7000;" vertex="1" parent="1">
          <mxGeometry x="543.38" y="190" width="113.25" height="70" as="geometry" />
        </mxCell>
        <mxCell id="yCWSXa417unQgLt9EM9f-168" value="CO 成本管理" style="rounded=1;whiteSpace=wrap;html=1;fillColor=#f0a30a;fontColor=#000000;strokeColor=#BD7000;" vertex="1" parent="1">
          <mxGeometry x="680" y="190" width="100" height="70" as="geometry" />
        </mxCell>
        <mxCell id="yCWSXa417unQgLt9EM9f-175" value="&lt;span style=&quot;color: rgb(0, 0, 0); font-family: Helvetica; font-size: 12px; font-style: normal; font-variant-ligatures: normal; font-variant-caps: normal; letter-spacing: normal; orphans: 2; text-align: center; text-indent: 0px; text-transform: none; widows: 2; word-spacing: 0px; -webkit-text-stroke-width: 0px; white-space: normal; background-color: rgb(251, 251, 251); text-decoration-thickness: initial; text-decoration-style: initial; text-decoration-color: initial; float: none; display: inline !important;&quot;&gt;ERP 系统&lt;/span&gt;" style="text;whiteSpace=wrap;html=1;fontStyle=1" vertex="1" parent="1">
          <mxGeometry x="550" y="45" width="90" height="40" as="geometry" />
        </mxCell>
        <mxCell id="yCWSXa417unQgLt9EM9f-176" value="对账结算" style="rounded=1;whiteSpace=wrap;html=1;" vertex="1" parent="1">
          <mxGeometry x="620" y="484" width="90" height="40" as="geometry" />
        </mxCell>
        <mxCell id="yCWSXa417unQgLt9EM9f-178" value="" style="rounded=0;whiteSpace=wrap;html=1;strokeColor=none;" vertex="1" parent="1">
          <mxGeometry x="70" y="40" width="310" height="110" as="geometry" />
        </mxCell>
        <mxCell id="yCWSXa417unQgLt9EM9f-179" value="收银" style="rounded=1;whiteSpace=wrap;html=1;fillColor=#f0a30a;fontColor=#000000;strokeColor=#BD7000;" vertex="1" parent="1">
          <mxGeometry x="79.5" y="82.5" width="120" height="30" as="geometry" />
        </mxCell>
        <mxCell id="yCWSXa417unQgLt9EM9f-180" value="日结" style="rounded=1;whiteSpace=wrap;html=1;fillColor=#f0a30a;fontColor=#000000;strokeColor=#BD7000;" vertex="1" parent="1">
          <mxGeometry x="230.5" y="82.5" width="145" height="30" as="geometry" />
        </mxCell>
        <mxCell id="yCWSXa417unQgLt9EM9f-181" value="进销存" style="rounded=1;whiteSpace=wrap;html=1;fillColor=#f0a30a;fontColor=#000000;strokeColor=#BD7000;" vertex="1" parent="1">
          <mxGeometry x="78.5" y="117.5" width="121" height="25" as="geometry" />
        </mxCell>
        <mxCell id="yCWSXa417unQgLt9EM9f-182" value="门店统计" style="rounded=1;whiteSpace=wrap;html=1;fillColor=#f0a30a;fontColor=#000000;strokeColor=#BD7000;" vertex="1" parent="1">
          <mxGeometry x="230.5" y="115" width="145" height="30" as="geometry" />
        </mxCell>
        <mxCell id="yCWSXa417unQgLt9EM9f-186" value="&lt;span style=&quot;color: rgb(0, 0, 0); font-family: Helvetica; font-size: 12px; font-style: normal; font-variant-ligatures: normal; font-variant-caps: normal; letter-spacing: normal; orphans: 2; text-align: center; text-indent: 0px; text-transform: none; widows: 2; word-spacing: 0px; -webkit-text-stroke-width: 0px; white-space: normal; background-color: rgb(251, 251, 251); text-decoration-thickness: initial; text-decoration-style: initial; text-decoration-color: initial; float: none; display: inline !important;&quot;&gt;POS 门店终端管理&lt;/span&gt;" style="text;whiteSpace=wrap;html=1;fontStyle=1" vertex="1" parent="1">
          <mxGeometry x="159" y="42.5" width="130" height="40" as="geometry" />
        </mxCell>
        <mxCell id="yCWSXa417unQgLt9EM9f-190" value="" style="rounded=0;whiteSpace=wrap;html=1;strokeColor=none;" vertex="1" parent="1">
          <mxGeometry x="820.5" y="40" width="292.5" height="110" as="geometry" />
        </mxCell>
        <mxCell id="yCWSXa417unQgLt9EM9f-192" value="抖音电商" style="rounded=1;whiteSpace=wrap;html=1;fillColor=#f0a30a;fontColor=#000000;strokeColor=#BD7000;" vertex="1" parent="1">
          <mxGeometry x="829.75" y="110" width="100.25" height="30" as="geometry" />
        </mxCell>
        <mxCell id="yCWSXa417unQgLt9EM9f-193" value="……" style="rounded=1;whiteSpace=wrap;html=1;fillColor=#f0a30a;fontColor=#000000;strokeColor=#BD7000;" vertex="1" parent="1">
          <mxGeometry x="970" y="110" width="120" height="30" as="geometry" />
        </mxCell>
        <mxCell id="yCWSXa417unQgLt9EM9f-194" value="&lt;span style=&quot;color: rgb(0, 0, 0); font-family: Helvetica; font-size: 12px; font-style: normal; font-variant-ligatures: normal; font-variant-caps: normal; letter-spacing: normal; orphans: 2; text-align: center; text-indent: 0px; text-transform: none; widows: 2; word-spacing: 0px; -webkit-text-stroke-width: 0px; white-space: normal; background-color: rgb(251, 251, 251); text-decoration-thickness: initial; text-decoration-style: initial; text-decoration-color: initial; float: none; display: inline !important;&quot;&gt;电商销售平台&lt;/span&gt;" style="text;whiteSpace=wrap;html=1;fontStyle=1" vertex="1" parent="1">
          <mxGeometry x="940" y="45" width="80" height="40" as="geometry" />
        </mxCell>
        <mxCell id="yCWSXa417unQgLt9EM9f-195" value="淘宝" style="rounded=1;whiteSpace=wrap;html=1;fillColor=#f0a30a;fontColor=#000000;strokeColor=#BD7000;" vertex="1" parent="1">
          <mxGeometry x="829.75" y="70" width="100.25" height="30" as="geometry" />
        </mxCell>
        <mxCell id="yCWSXa417unQgLt9EM9f-198" value="京东" style="rounded=1;whiteSpace=wrap;html=1;fillColor=#f0a30a;fontColor=#000000;strokeColor=#BD7000;" vertex="1" parent="1">
          <mxGeometry x="970" y="70" width="123" height="30" as="geometry" />
        </mxCell>
        <mxCell id="yCWSXa417unQgLt9EM9f-199" value="" style="rounded=0;whiteSpace=wrap;html=1;strokeColor=none;" vertex="1" parent="1">
          <mxGeometry x="818" y="162" width="292.5" height="128" as="geometry" />
        </mxCell>
        <mxCell id="yCWSXa417unQgLt9EM9f-200" value="&lt;span style=&quot;color: rgb(0, 0, 0); font-family: Helvetica; font-size: 12px; font-style: normal; font-variant-ligatures: normal; font-variant-caps: normal; letter-spacing: normal; orphans: 2; text-align: center; text-indent: 0px; text-transform: none; widows: 2; word-spacing: 0px; -webkit-text-stroke-width: 0px; white-space: normal; background-color: rgb(251, 251, 251); text-decoration-thickness: initial; text-decoration-style: initial; text-decoration-color: initial; float: none; display: inline !important;&quot;&gt;门店工程管理&lt;/span&gt;" style="text;whiteSpace=wrap;html=1;fontStyle=1" vertex="1" parent="1">
          <mxGeometry x="930" y="170" width="110" height="40" as="geometry" />
        </mxCell>
        <mxCell id="yCWSXa417unQgLt9EM9f-201" value="门店开发" style="rounded=1;whiteSpace=wrap;html=1;fillColor=#f0a30a;fontColor=#000000;strokeColor=#BD7000;" vertex="1" parent="1">
          <mxGeometry x="827" y="210" width="86.5" height="27" as="geometry" />
        </mxCell>
        <mxCell id="yCWSXa417unQgLt9EM9f-202" value="日常采购" style="rounded=1;whiteSpace=wrap;html=1;fillColor=#f0a30a;fontColor=#000000;strokeColor=#BD7000;" vertex="1" parent="1">
          <mxGeometry x="937" y="250" width="63" height="30" as="geometry" />
        </mxCell>
        <mxCell id="yCWSXa417unQgLt9EM9f-203" value="工程预决算" style="rounded=1;whiteSpace=wrap;html=1;fillColor=#f0a30a;fontColor=#000000;strokeColor=#BD7000;" vertex="1" parent="1">
          <mxGeometry x="1020" y="210" width="73" height="27" as="geometry" />
        </mxCell>
        <mxCell id="yCWSXa417unQgLt9EM9f-204" value="装修管理" style="rounded=1;whiteSpace=wrap;html=1;fillColor=#f0a30a;fontColor=#000000;strokeColor=#BD7000;" vertex="1" parent="1">
          <mxGeometry x="937" y="210" width="63" height="27" as="geometry" />
        </mxCell>
        <mxCell id="yCWSXa417unQgLt9EM9f-205" value="门店巡检" style="rounded=1;whiteSpace=wrap;html=1;fillColor=#f0a30a;fontColor=#000000;strokeColor=#BD7000;" vertex="1" parent="1">
          <mxGeometry x="1020" y="247" width="70" height="33" as="geometry" />
        </mxCell>
        <mxCell id="yCWSXa417unQgLt9EM9f-206" value="资产管理" style="rounded=1;whiteSpace=wrap;html=1;fillColor=#f0a30a;fontColor=#000000;strokeColor=#BD7000;" vertex="1" parent="1">
          <mxGeometry x="827" y="247" width="86.5" height="33" as="geometry" />
        </mxCell>
        <mxCell id="yCWSXa417unQgLt9EM9f-214" value="" style="rounded=0;whiteSpace=wrap;html=1;" vertex="1" parent="1">
          <mxGeometry x="70" y="165" width="310" height="130" as="geometry" />
        </mxCell>
        <mxCell id="yCWSXa417unQgLt9EM9f-215" value="&lt;span style=&quot;color: rgb(0, 0, 0); font-family: Helvetica; font-size: 12px; font-style: normal; font-variant-ligatures: normal; font-variant-caps: normal; letter-spacing: normal; orphans: 2; text-align: center; text-indent: 0px; text-transform: none; widows: 2; word-spacing: 0px; -webkit-text-stroke-width: 0px; white-space: normal; background-color: rgb(251, 251, 251); text-decoration-thickness: initial; text-decoration-style: initial; text-decoration-color: initial; float: none; display: inline !important;&quot;&gt;商品运营平台&lt;/span&gt;" style="text;whiteSpace=wrap;html=1;fontStyle=1" vertex="1" parent="1">
          <mxGeometry x="161.25" y="165" width="110" height="40" as="geometry" />
        </mxCell>
        <mxCell id="yCWSXa417unQgLt9EM9f-216" value="货品生命周期管理" style="rounded=1;whiteSpace=wrap;html=1;fillColor=#f0a30a;fontColor=#000000;strokeColor=#BD7000;" vertex="1" parent="1">
          <mxGeometry x="79" y="195" width="140" height="40" as="geometry" />
        </mxCell>
        <mxCell id="yCWSXa417unQgLt9EM9f-217" value="货品畅平滞分析" style="rounded=1;whiteSpace=wrap;html=1;fillColor=#f0a30a;fontColor=#000000;strokeColor=#BD7000;" vertex="1" parent="1">
          <mxGeometry x="79" y="245" width="90" height="40" as="geometry" />
        </mxCell>
        <mxCell id="yCWSXa417unQgLt9EM9f-218" value="智能配补调" style="rounded=1;whiteSpace=wrap;html=1;fillColor=#f0a30a;fontColor=#000000;strokeColor=#BD7000;" vertex="1" parent="1">
          <mxGeometry x="239" y="195" width="130" height="40" as="geometry" />
        </mxCell>
        <mxCell id="yCWSXa417unQgLt9EM9f-219" value="销售预测" style="rounded=1;whiteSpace=wrap;html=1;fillColor=#f0a30a;fontColor=#000000;strokeColor=#BD7000;" vertex="1" parent="1">
          <mxGeometry x="179" y="245" width="90" height="40" as="geometry" />
        </mxCell>
        <mxCell id="yCWSXa417unQgLt9EM9f-220" value="商品定价" style="rounded=1;whiteSpace=wrap;html=1;fillColor=#f0a30a;fontColor=#000000;strokeColor=#BD7000;" vertex="1" parent="1">
          <mxGeometry x="279" y="245" width="90" height="40" as="geometry" />
        </mxCell>
        <mxCell id="yCWSXa417unQgLt9EM9f-221" value="" style="rounded=0;whiteSpace=wrap;html=1;" vertex="1" parent="1">
          <mxGeometry x="140" y="610" width="500" height="150" as="geometry" />
        </mxCell>
        <mxCell id="yCWSXa417unQgLt9EM9f-223" value="&lt;span style=&quot;color: rgb(0, 0, 0); font-family: Helvetica; font-size: 12px; font-style: normal; font-variant-ligatures: normal; font-variant-caps: normal; letter-spacing: normal; orphans: 2; text-align: center; text-indent: 0px; text-transform: none; widows: 2; word-spacing: 0px; -webkit-text-stroke-width: 0px; white-space: normal; background-color: rgb(251, 251, 251); text-decoration-thickness: initial; text-decoration-style: initial; text-decoration-color: initial; float: none; display: inline !important;&quot;&gt;硬件运维/系统运维/应用运维&lt;/span&gt;" style="text;whiteSpace=wrap;html=1;fontStyle=1" vertex="1" parent="1">
          <mxGeometry x="305" y="610" width="180" height="40" as="geometry" />
        </mxCell>
        <mxCell id="yCWSXa417unQgLt9EM9f-224" value="会议与视频安防系统" style="rounded=1;whiteSpace=wrap;html=1;" vertex="1" parent="1">
          <mxGeometry x="150" y="660" width="110" height="40" as="geometry" />
        </mxCell>
        <mxCell id="yCWSXa417unQgLt9EM9f-225" value="办公电脑/周边设备" style="rounded=1;whiteSpace=wrap;html=1;" vertex="1" parent="1">
          <mxGeometry x="150" y="710" width="110" height="40" as="geometry" />
        </mxCell>
        <mxCell id="yCWSXa417unQgLt9EM9f-226" value="数据中心" style="rounded=1;whiteSpace=wrap;html=1;" vertex="1" parent="1">
          <mxGeometry x="275" y="710" width="355" height="40" as="geometry" />
        </mxCell>
        <mxCell id="yCWSXa417unQgLt9EM9f-227" value="网络与通信设备" style="rounded=1;whiteSpace=wrap;html=1;" vertex="1" parent="1">
          <mxGeometry x="275" y="660" width="110" height="40" as="geometry" />
        </mxCell>
        <mxCell id="yCWSXa417unQgLt9EM9f-228" value="服务器及其周边" style="rounded=1;whiteSpace=wrap;html=1;" vertex="1" parent="1">
          <mxGeometry x="400" y="660" width="110" height="40" as="geometry" />
        </mxCell>
        <mxCell id="yCWSXa417unQgLt9EM9f-229" value="操作系统与数据库" style="rounded=1;whiteSpace=wrap;html=1;" vertex="1" parent="1">
          <mxGeometry x="520" y="660" width="110" height="40" as="geometry" />
        </mxCell>
        <mxCell id="yCWSXa417unQgLt9EM9f-230" value="" style="rounded=0;whiteSpace=wrap;html=1;" vertex="1" parent="1">
          <mxGeometry x="670" y="610" width="330" height="150" as="geometry" />
        </mxCell>
        <mxCell id="yCWSXa417unQgLt9EM9f-231" value="&lt;span style=&quot;color: rgb(0, 0, 0); font-family: Helvetica; font-size: 12px; font-style: normal; font-variant-ligatures: normal; font-variant-caps: normal; letter-spacing: normal; orphans: 2; text-align: center; text-indent: 0px; text-transform: none; widows: 2; word-spacing: 0px; -webkit-text-stroke-width: 0px; white-space: normal; background-color: rgb(251, 251, 251); text-decoration-thickness: initial; text-decoration-style: initial; text-decoration-color: initial; float: none; display: inline !important;&quot;&gt;数据服务&lt;/span&gt;" style="text;whiteSpace=wrap;html=1;fontStyle=1" vertex="1" parent="1">
          <mxGeometry x="835" y="610" width="180" height="40" as="geometry" />
        </mxCell>
        <mxCell id="yCWSXa417unQgLt9EM9f-233" value="缓存服务" style="rounded=1;whiteSpace=wrap;html=1;" vertex="1" parent="1">
          <mxGeometry x="680" y="670" width="60" height="80" as="geometry" />
        </mxCell>
        <mxCell id="yCWSXa417unQgLt9EM9f-234" value="弹性计算" style="rounded=1;whiteSpace=wrap;html=1;" vertex="1" parent="1">
          <mxGeometry x="760" y="670" width="60" height="80" as="geometry" />
        </mxCell>
        <mxCell id="yCWSXa417unQgLt9EM9f-235" value="离线计算" style="rounded=1;whiteSpace=wrap;html=1;" vertex="1" parent="1">
          <mxGeometry x="840" y="670" width="60" height="80" as="geometry" />
        </mxCell>
        <mxCell id="yCWSXa417unQgLt9EM9f-236" value="实时计算" style="rounded=1;whiteSpace=wrap;html=1;" vertex="1" parent="1">
          <mxGeometry x="910" y="670" width="60" height="80" as="geometry" />
        </mxCell>
        <mxCell id="yCWSXa417unQgLt9EM9f-237" value="中间件平台" style="rounded=1;whiteSpace=wrap;html=1;fontStyle=1" vertex="1" parent="1">
          <mxGeometry x="1020" y="615" width="120" height="60" as="geometry" />
        </mxCell>
        <mxCell id="yCWSXa417unQgLt9EM9f-238" value="微服务" style="rounded=1;whiteSpace=wrap;html=1;fontStyle=1" vertex="1" parent="1">
          <mxGeometry x="1020" y="695" width="120" height="60" as="geometry" />
        </mxCell>
        <mxCell id="yCWSXa417unQgLt9EM9f-241" value="" style="rounded=0;whiteSpace=wrap;html=1;strokeColor=none;fillColor=#cce5ff;" vertex="1" parent="1">
          <mxGeometry x="20" y="-90" width="425" height="105" as="geometry" />
        </mxCell>
        <mxCell id="yCWSXa417unQgLt9EM9f-242" value="&lt;span style=&quot;color: rgb(0, 0, 0); font-family: Helvetica; font-size: 12px; font-style: normal; font-variant-ligatures: normal; font-variant-caps: normal; font-weight: 700; letter-spacing: normal; orphans: 2; text-align: center; text-indent: 0px; text-transform: none; widows: 2; word-spacing: 0px; -webkit-text-stroke-width: 0px; white-space: normal; background-color: rgb(251, 251, 251); text-decoration-thickness: initial; text-decoration-style: initial; text-decoration-color: initial; display: inline !important; float: none;&quot;&gt;经营决策系统&lt;/span&gt;" style="text;whiteSpace=wrap;html=1;" vertex="1" parent="1">
          <mxGeometry x="180" y="-85" width="110" height="40" as="geometry" />
        </mxCell>
        <mxCell id="yCWSXa417unQgLt9EM9f-243" value="高层战略规划" style="rounded=1;whiteSpace=wrap;html=1;" vertex="1" parent="1">
          <mxGeometry x="25" y="-35" width="190" height="40" as="geometry" />
        </mxCell>
        <mxCell id="yCWSXa417unQgLt9EM9f-244" value="业务主题分析" style="rounded=1;whiteSpace=wrap;html=1;" vertex="1" parent="1">
          <mxGeometry x="235" y="-35" width="200" height="40" as="geometry" />
        </mxCell>
        <mxCell id="yCWSXa417unQgLt9EM9f-245" value="&lt;span style=&quot;color: rgb(0, 0, 0); font-family: Helvetica; font-size: 12px; font-style: normal; font-variant-ligatures: normal; font-variant-caps: normal; font-weight: 700; letter-spacing: normal; orphans: 2; text-align: center; text-indent: 0px; text-transform: none; widows: 2; word-spacing: 0px; -webkit-text-stroke-width: 0px; white-space: normal; background-color: rgb(251, 251, 251); text-decoration-thickness: initial; text-decoration-style: initial; text-decoration-color: initial; display: inline !important; float: none;&quot;&gt;经营决策系统&lt;/span&gt;" style="text;whiteSpace=wrap;html=1;" vertex="1" parent="1">
          <mxGeometry x="665" y="-85" width="110" height="40" as="geometry" />
        </mxCell>
        <mxCell id="yCWSXa417unQgLt9EM9f-246" value="" style="rounded=0;whiteSpace=wrap;html=1;strokeColor=none;fillColor=#cce5ff;" vertex="1" parent="1">
          <mxGeometry x="540" y="-92.5" width="570" height="105" as="geometry" />
        </mxCell>
        <mxCell id="yCWSXa417unQgLt9EM9f-248" value="&lt;span style=&quot;color: rgb(0, 0, 0); font-family: Helvetica; font-size: 12px; font-style: normal; font-variant-ligatures: normal; font-variant-caps: normal; font-weight: 700; letter-spacing: normal; orphans: 2; text-align: center; text-indent: 0px; text-transform: none; widows: 2; word-spacing: 0px; -webkit-text-stroke-width: 0px; white-space: normal; background-color: rgb(251, 251, 251); text-decoration-thickness: initial; text-decoration-style: initial; text-decoration-color: initial; display: inline !important; float: none;&quot;&gt;企业门店系统&lt;/span&gt;" style="text;whiteSpace=wrap;html=1;" vertex="1" parent="1">
          <mxGeometry x="815.25" y="-90" width="110" height="40" as="geometry" />
        </mxCell>
        <mxCell id="yCWSXa417unQgLt9EM9f-249" value="统一身份认证" style="rounded=1;whiteSpace=wrap;html=1;" vertex="1" parent="1">
          <mxGeometry x="549.5" y="-35" width="140.5" height="40" as="geometry" />
        </mxCell>
        <mxCell id="yCWSXa417unQgLt9EM9f-250" value="统一权限管理" style="rounded=1;whiteSpace=wrap;html=1;" vertex="1" parent="1">
          <mxGeometry x="760" y="-35" width="137" height="40" as="geometry" />
        </mxCell>
        <mxCell id="yCWSXa417unQgLt9EM9f-251" value="统一应用入口" style="rounded=1;whiteSpace=wrap;html=1;" vertex="1" parent="1">
          <mxGeometry x="960" y="-35" width="140" height="40" as="geometry" />
        </mxCell>
      </root>
    </mxGraphModel>
  </diagram>
</mxfile>
